<svg id="Capa_1" enable-background="new 0 0 512 512" height="512" viewBox="0 0 512 512" width="512" xmlns="http://www.w3.org/2000/svg"><g><g><path d="m467.776 69.715c-58.391-58.391-152.684-58.922-211.776-1.669-59.092-57.253-153.385-56.722-211.776 1.669-58.966 58.965-58.966 154.568 0 213.533l197.207 197.207c8.046 8.046 21.092 8.046 29.138 0l197.207-197.207c58.965-58.965 58.966-154.568 0-213.533z" fill="#dd636e"/><path d="m467.776 69.715c-28.122-28.122-64.573-42.782-101.408-44.071 4.136 18.307 6.391 37.325 6.391 56.881 0 142.024-115.133 257.157-257.157 257.157-5.191 0-10.333-.2-15.447-.503l141.276 141.277c8.046 8.046 21.092 8.046 29.138 0l197.207-197.207c58.965-58.966 58.966-154.569 0-213.534z" fill="#da4a54"/></g><g><path d="m256 244.657c-61.952 0-82.929 40.083-90.03 67.805-3.359 13.115 6.657 25.854 20.195 25.854h69.835 69.835c13.538 0 23.554-12.739 20.195-25.854-7.101-27.722-28.078-67.805-90.03-67.805z" fill="#f1f4f6"/><path d="m346.017 312.469c-4.731-18.472-15.604-42.435-40.674-56.368-34.749 37.962-80.755 65.463-132.717 77.229 3.61 3.086 8.299 4.993 13.526 4.993h139.67c13.538 0 23.554-12.739 20.195-25.854z" fill="#d0e2e7"/><ellipse cx="304.752" cy="162.27" fill="#f1f4f6" rx="49.694" ry="31.22" transform="matrix(.192 -.981 .981 .192 86.901 430.126)"/><ellipse cx="385.557" cy="224.947" fill="#d0e2e7" rx="41.626" ry="31.22" transform="matrix(.581 -.814 .814 .581 -21.441 408.272)"/><g fill="#f1f4f6"><ellipse cx="207.248" cy="162.27" rx="31.22" ry="49.694" transform="matrix(.981 -.192 .192 .981 -27.339 42.887)"/><ellipse cx="126.443" cy="224.947" rx="31.22" ry="41.626" transform="matrix(.814 -.581 .581 .814 -107.106 115.203)"/></g></g></g></svg>