<svg height="476pt" viewBox="0 -12 476.55796 476" width="476pt" xmlns="http://www.w3.org/2000/svg"><path d="m78.152344 22.851562c-1.949219 23.128907-26.050782 26.78125-26.050782 26.78125 20.695313.972657 25.851563 28.117188 25.851563 28.117188.441406-19.355469 26.640625-28.40625 26.640625-28.40625-19.625-1.171875-26.441406-26.492188-26.441406-26.492188zm0 0" fill="#d7e057"/><path d="m104.773438 46.347656c-17.207032-1.027344-23.660157-24.046875-23.726563-24.277344-.378906-1.40625-1.699219-2.320312-3.164063-2.203124-1.449218.128906-2.597656 1.28125-2.71875 2.730468-1.71875 20.433594-22.625 23.929688-23.507812 24.066406-1.527344.230469-2.625 1.578126-2.546875 3.121094.082031 1.539063 1.316406 2.769532 2.855469 2.84375 18.054687.847656 22.996094 25.433594 23.042968 25.683594.273438 1.421875 1.519532 2.433594 2.945313 2.433594.082031 0 .167969-.003906.25-.011719 1.527344-.125 2.714844-1.386719 2.75-2.917969.390625-17.015625 24.382813-25.554687 24.625-25.636718 1.351563-.46875 2.183594-1.832032 1.988281-3.246094-.195312-1.417969-1.363281-2.5-2.792968-2.585938zm-27.128907 20.695313c-2.714843-6.261719-7.417969-13.816407-15.175781-17.753907 5.863281-2.808593 12.820312-7.824218 16.40625-16.546874 3.101562 6.144531 8.398438 13.761718 16.667969 17.445312-6.015625 3.28125-13.847657 8.8125-17.898438 16.855469zm0 0" fill="#3a312a"/><path d="m34.753906 56.8125c-1.378906 16.359375-18.425781 18.941406-18.425781 18.941406 14.636719.691406 18.285156 19.890625 18.285156 19.890625.3125-13.691406 18.84375-20.09375 18.84375-20.09375-13.882812-.828125-18.703125-18.738281-18.703125-18.738281zm0 0" fill="#d7e057"/><path d="m53.636719 72.554688c-11.53125-.6875-15.945313-16.371094-15.988281-16.527344-.378907-1.402344-1.707032-2.328125-3.164063-2.203125-1.449219.128906-2.597656 1.285156-2.71875 2.734375-1.15625 13.742187-15.292969 16.136718-15.882813 16.230468-1.527343.226563-2.625 1.578126-2.546874 3.121094.078124 1.539063 1.3125 2.765625 2.855468 2.839844 12.070313.570312 15.445313 17.289062 15.476563 17.453125.273437 1.425781 1.519531 2.441406 2.945312 2.441406.085938 0 .167969-.003906.25-.011719 1.53125-.125 2.714844-1.386718 2.753907-2.921874.257812-11.417969 16.664062-17.265626 16.824218-17.324219 1.351563-.46875 2.1875-1.824219 1.992188-3.242188-.199219-1.417969-1.367188-2.503906-2.796875-2.589843zm-19.167969 13.59375c-1.847656-3.773438-4.679688-7.894532-8.894531-10.5625 3.710937-2.082032 7.394531-5.257813 9.742187-9.832032 2.113282 3.75 5.308594 7.910156 9.882813 10.449219-3.703125 2.199219-7.980469 5.480469-10.730469 9.945313zm0 0" fill="#3a312a"/><path d="m34.753906 3.496094c-1.378906 16.359375-18.425781 18.941406-18.425781 18.941406 14.636719.6875 18.285156 19.886719 18.285156 19.886719.3125-13.6875 18.84375-20.089844 18.84375-20.089844-13.882812-.828125-18.703125-18.738281-18.703125-18.738281zm0 0" fill="#d7e057"/><path d="m53.636719 19.242188c-11.53125-.691407-15.941407-16.371094-15.988281-16.53125-.378907-1.402344-1.707032-2.328126-3.164063-2.203126-1.449219.128907-2.597656 1.285157-2.71875 2.734376-1.15625 13.742187-15.292969 16.136718-15.882813 16.230468-1.527343.230469-2.625 1.578125-2.546874 3.121094.078124 1.539062 1.3125 2.769531 2.855468 2.839844 12.070313.570312 15.445313 17.289062 15.476563 17.453125.273437 1.425781 1.519531 2.441406 2.945312 2.441406.085938 0 .167969-.003906.25-.011719 1.53125-.125 2.714844-1.386718 2.753907-2.921875.257812-11.417969 16.660156-17.265625 16.824218-17.324219 1.351563-.46875 2.1875-1.824218 1.992188-3.242187-.199219-1.417969-1.367188-2.5-2.796875-2.585937zm-19.167969 13.589843c-1.847656-3.773437-4.679688-7.894531-8.894531-10.5625 3.710937-2.078125 7.394531-5.257812 9.742187-9.828125 2.113282 3.746094 5.308594 7.90625 9.882813 10.445313-3.703125 2.203125-7.980469 5.480469-10.730469 9.945312zm0 0" fill="#3a312a"/><path d="m241.460938 14.542969c-1.960938-1.660157-4.839844-1.660157-6.800782 0l-197.597656 167.601562v267.097657h402v-267.097657zm0 0" fill="#8ac6dd"/><path d="m441 179.855469-197.601562-167.601563c-3.09375-2.621094-7.582032-2.617187-10.679688 0l-197.597656 167.601563c-.671875.570312-1.0625 1.40625-1.0625 2.289062v122.859375c0 1.65625 1.34375 3 3 3 1.660156 0 3-1.34375 3-3v-121.46875l196.539062-166.703125c.847656-.714843 2.074219-.714843 2.921875 0l196.539063 166.703125v262.707032h-396v-110.796876c0-1.660156-1.34375-3-3-3-1.660156 0-3 1.339844-3 3v113.796876c0 1.660156 1.339844 3 3 3h402c1.65625 0 3-1.339844 3-3v-267.097657c.003906-.882812-.382813-1.71875-1.058594-2.289062zm0 0" fill="#3a312a"/><path d="m468.179688 192.488281-217.667969-184.628906c-7.214844-6.109375-17.683594-6.113281-24.90625.007813l-217.660157 184.621093c-5.898437 5-6.621093 13.835938-1.621093 19.730469 5.003906 5.898438 13.839843 6.621094 19.734375 1.621094l212.003906-179.824219 212 179.824219c2.632812 2.230468 5.851562 3.324218 9.050781 3.324218 3.96875 0 7.914063-1.679687 10.683594-4.945312 5.003906-5.894531 4.277344-14.730469-1.617187-19.730469zm0 0" fill="#87796f"/><path d="m476.066406 201.773438c-.371094-4.527344-2.484375-8.636719-5.945312-11.574219l-217.671875-184.628907c-8.335938-7.058593-20.445313-7.054687-28.785157.007813l-217.660156 184.621094c-3.464844 2.9375-5.574218 7.046875-5.9453122 11.574219-.3710938 4.527343 1.0429682 8.925781 3.9804682 12.386718 6.0625 7.144532 16.8125 8.03125 23.960938 1.964844l210.0625-178.175781 210.0625 178.175781c3.066406 2.601562 6.972656 4.035156 10.988281 4.035156 5.007813 0 9.734375-2.1875 12.96875-6 2.941407-3.460937 4.355469-7.859375 3.984375-12.386718zm-8.554687 8.503906c-2.097657 2.46875-5.15625 3.882812-8.398438 3.882812-2.597656 0-5.125-.925781-7.109375-2.609375l-212.003906-179.824219c-.558594-.472656-1.25-.710937-1.9375-.710937-.691406 0-1.378906.238281-1.941406.710937l-212 179.824219c-4.625 3.921875-11.582032 3.355469-15.507813-1.269531-1.898437-2.242188-2.8125-5.085938-2.574219-8.015625.242188-2.929687 1.605469-5.589844 3.847657-7.488281l217.660156-184.617188c6.089844-5.164062 14.933594-5.167968 21.023437-.007812l217.667969 184.625c2.242188 1.898437 3.609375 4.558594 3.847657 7.488281.238281 2.925781-.675782 5.773437-2.574219 8.011719zm0 0" fill="#3a312a"/><path d="m246.4375 205.34375c-56.675781 0-102.625 45.949219-102.625 102.625v141.277344h205.25v-141.277344c0-56.679688-45.945312-102.625-102.625-102.625zm0 0" fill="#87796f"/><path d="m246.4375 202.34375c-58.242188 0-105.625 47.382812-105.625 105.625v141.277344c0 1.65625 1.339844 3 3 3h205.25c1.65625 0 3-1.34375 3-3v-141.277344c0-58.242188-47.382812-105.625-105.625-105.625zm99.625 243.898438h-199.25v-138.273438c0-54.933594 44.691406-99.628906 99.625-99.628906s99.625 44.695312 99.625 99.628906zm0 0" fill="#3a312a"/><path d="m473.15625 435.945312-16.304688-57.949218c-1.273437-4.515625-5.390624-7.632813-10.078124-7.632813h-109.929688c-4.691406 0-8.808594 3.117188-10.078125 7.632813l-16.304687 57.949218c-1.882813 6.675782 3.140624 13.300782 10.074218 13.300782h142.542969c6.941406 0 11.957031-6.625 10.078125-13.300782zm0 0" fill="#f16c7a"/><path d="m476.046875 435.132812-16.308594-57.953124c-1.625-5.78125-6.957031-9.816407-12.964843-9.816407h-57.847657c-1.65625 0-3 1.34375-3 3s1.34375 3 3 3h57.847657c3.332031 0 6.285156 2.238281 7.1875 5.445313l16.308593 57.945312c.636719 2.273438.1875 4.652344-1.238281 6.535156-1.421875 1.878907-3.59375 2.957032-5.953125 2.957032h-142.542969c-2.359375 0-4.527344-1.078125-5.953125-2.957032-1.425781-1.882812-1.875-4.261718-1.234375-6.535156l16.304688-57.945312c.902344-3.207032 3.859375-5.445313 7.191406-5.445313h24.359375c1.65625 0 3-1.34375 3-3s-1.34375-3-3-3h-24.359375c-6.011719 0-11.339844 4.039063-12.964844 9.820313l-16.308594 57.949218c-1.152343 4.09375-.339843 8.386719 2.230469 11.777344 2.570313 3.394532 6.480469 5.335938 10.734375 5.335938h142.542969c4.253906 0 8.167969-1.945313 10.734375-5.335938 2.574219-3.390625 3.386719-7.683594 2.234375-11.777344zm0 0" fill="#3a312a"/><path d="m297.257812 151.316406c5.316407-3.265625 8.878907-9.117187 8.878907-15.816406 0-10.253906-8.3125-18.566406-18.566407-18.566406-10.253906 0-18.566406 8.3125-18.566406 18.566406 0 .699219.046875 1.382812.121094 2.0625h-62.234375c.136719-.902344.226563-1.816406.226563-2.75 0-10.253906-8.3125-18.566406-18.566407-18.566406-10.253906 0-18.566406 8.3125-18.566406 18.566406 0 6.695312 3.5625 12.550781 8.878906 15.816406-5.316406 3.265625-8.878906 9.113282-8.878906 15.816406 0 10.253907 8.3125 18.5625 18.566406 18.5625 10.253907 0 18.566407-8.308593 18.566407-18.5625 0-.941406-.089844-1.851562-.226563-2.75h62.441406c-.207031 1.113282-.328125 2.261719-.328125 3.4375 0 10.253907 8.3125 18.566407 18.566406 18.566407 10.253907 0 18.566407-8.3125 18.566407-18.566407 0-6.699218-3.558594-12.550781-8.878907-15.816406zm0 0" fill="#fce8cb"/><path d="m309.136719 135.5c0-11.890625-9.675781-21.566406-21.566407-21.566406-11.578124 0-21.050781 9.171875-21.542968 20.628906h-55.910156c-.132813-11.773438-9.753907-21.316406-21.5625-21.316406-11.894532 0-21.566407 9.675781-21.566407 21.566406 0 6.109375 2.527344 11.777344 6.917969 15.816406-4.386719 4.039063-6.917969 9.707032-6.917969 15.816406 0 11.890626 9.671875 21.566407 21.566407 21.566407 11.808593 0 21.429687-9.539063 21.5625-21.316407h55.894531c-.003907.144532-.007813.292969-.007813.4375 0 11.894532 9.675782 21.566407 21.566406 21.566407 11.890626 0 21.5625-9.671875 21.5625-21.566407 0-6.109374-2.527343-11.777343-6.917968-15.816406 4.390625-4.039062 6.921875-9.707031 6.921875-15.816406zm-6 31.632812c0 8.582032-6.984375 15.566407-15.566407 15.566407-8.582031 0-15.5625-6.984375-15.5625-15.566407 0-.933593.089844-1.878906.28125-2.886718.164063-.875-.070312-1.78125-.640624-2.46875-.570313-.6875-1.417969-1.082032-2.308594-1.082032h-62.445313c-.871093 0-1.699219.378907-2.269531 1.039063s-.824219 1.539063-.695312 2.402344c.128906.882812.191406 1.617187.191406 2.308593 0 8.585938-6.980469 15.566407-15.566406 15.566407-8.582032 0-15.566407-6.980469-15.566407-15.566407 0-5.441406 2.785157-10.394531 7.449219-13.257812.886719-.546875 1.429688-1.515625 1.429688-2.554688 0-1.042968-.542969-2.011718-1.429688-2.558593-4.664062-2.863281-7.449219-7.820313-7.449219-13.257813 0-8.582031 6.984375-15.566406 15.566407-15.566406 8.585937 0 15.566406 6.984375 15.566406 15.566406 0 .691406-.0625 1.425782-.191406 2.308594-.128907.863281.125 1.742188.695312 2.402344s1.398438 1.039062 2.269531 1.039062h62.234375c.851563 0 1.664063-.359375 2.234375-.996094.566407-.636718.839844-1.484374.746094-2.332031-.0625-.570312-.101563-1.148437-.101563-1.734375 0-8.585937 6.980469-15.566406 15.5625-15.566406 8.582032 0 15.566407 6.980469 15.566407 15.566406 0 5.441406-2.785157 10.394532-7.449219 13.257813-.886719.546875-1.429688 1.515625-1.429688 2.554687 0 1.042969.542969 2.011719 1.429688 2.558594 4.664062 2.859375 7.449219 7.816406 7.449219 13.257812zm0 0" fill="#3a312a"/><path d="m238.0625 37.949219-15 12.71875 167.101562 141.734375c10.085938 8.554687 15.898438 21.105468 15.898438 34.328125v140.636719h30v-161.480469zm0 0" fill="#6ca8bf"/><path d="m470.261719 436.746094-16.300781-57.9375c-.898438-3.199219-3.859376-5.441406-7.179688-5.441406h-30c3.320312 0 6.28125 2.242187 7.179688 5.441406l16.300781 57.9375c.640625 2.28125.199219 4.660156-1.21875 6.542968-1.441407 1.878907-3.601563 2.957032-5.960938 2.957032h30c2.359375 0 4.519531-1.078125 5.960938-2.957032 1.417969-1.882812 1.859375-4.261718 1.21875-6.542968zm0 0" fill="#d34e5c"/></svg>