<?xml version="1.0"?>
<svg xmlns="http://www.w3.org/2000/svg" viewBox="0 0 512 512" width="512" height="512"><g id="Filled_outline" data-name="Filled outline"><path d="M440,384h48a0,0,0,0,1,0,0v64a32,32,0,0,1-32,32H440a0,0,0,0,1,0,0V384A0,0,0,0,1,440,384Z" style="fill:#fdbf92"/><path d="M460.53,284.08,432,280l-25.94-6.49a8,8,0,0,1-6.06-7.76V208H336v57.75a8,8,0,0,1-6.06,7.76L304,280l-28.53,4.08A31.994,31.994,0,0,0,248,315.75V384h48v96H440V384h48V315.75A31.994,31.994,0,0,0,460.53,284.08Z" style="fill:#fdc8a2"/><rect x="248" y="384" width="48" height="96" style="fill:#fdbf92"/><path d="M488,315.75a31.994,31.994,0,0,0-27.47-31.67L432,280l-64,56-64-56-28.53,4.08A31.994,31.994,0,0,0,248,315.75V384h34.427A63.782,63.782,0,0,0,296,440v48H440V440a63.771,63.771,0,0,0,13.564-56H488Z" style="fill:#60d0df"/><path d="M400,208v32.51a72.1,72.1,0,0,1-64,0V208Z" style="fill:#fdbf92"/><path d="M440,56H416V88h8a16,16,0,0,1,16,16v88a48,48,0,0,0,48,48V104A48,48,0,0,0,440,56Z" style="fill:#663723"/><path d="M368,232h0a72,72,0,0,1-72-72V104a64,64,0,0,1,64-64h16a64,64,0,0,1,64,64v56A72,72,0,0,1,368,232Z" style="fill:#fdc8a2"/><path d="M440,112h8a24,24,0,0,1,24,24v0a24,24,0,0,1-24,24h-8a0,0,0,0,1,0,0V112A0,0,0,0,1,440,112Z" style="fill:#fdb683"/><path d="M360,16a80,80,0,0,0-80,80h0v56h0a236.208,236.208,0,0,0,93.4-72.092L392,56l2.713,6.782A94.1,94.1,0,0,0,440,112h16V96a80,80,0,0,0-80-80Z" style="fill:#7a432a"/><polygon points="208 408 176 416 176 360 208 368 208 408" style="fill:#348ed8"/><path d="M208,368h64l216,64v24a32,32,0,0,1-32,32H424L264,416l-56,8Z" style="fill:#fdc8a2"/><path d="M144,386.667a32,32,0,0,0-6.4-19.2L120,344H24V488H136V472l8-32Z" style="fill:#ffb431"/><path d="M152,240l-5.942-14.856A40,40,0,0,0,108.919,200H64a40,40,0,0,0-40,40v72H168a32,32,0,0,0,32-32V240Z" style="fill:#ffb431"/><rect x="176" y="232" width="32" height="32" rx="8" ry="8" style="fill:#7a432a"/><rect x="24" y="312" width="96" height="32" style="fill:#d65246"/><path d="M168,448H112L80,384,48,416l40,72H192V472A24,24,0,0,0,168,448Z" style="fill:#ffb431"/><path d="M396,152a12,12,0,1,0-12-12A12.013,12.013,0,0,0,396,152Z"/><path d="M368,200a24.028,24.028,0,0,0,24-24H376a8,8,0,0,1-16,0H344A24.028,24.028,0,0,0,368,200Z"/><path d="M120,244a12,12,0,1,0-12,12A12.013,12.013,0,0,0,120,244Z"/><path d="M168,440H152V386.67a40.289,40.289,0,0,0-8-24l-16-21.337V320h40a40.045,40.045,0,0,0,40-40V240a8,8,0,0,0-8-8H157.416l-3.931-9.826A47.768,47.768,0,0,0,108.919,192H64a47.6,47.6,0,0,0-28.81,9.6L44.8,214.4A31.718,31.718,0,0,1,64,208h44.919a31.847,31.847,0,0,1,29.711,20.116l5.942,14.856A8,8,0,0,0,152,248h24v8a8,8,0,0,0,8,8h8v16a24.028,24.028,0,0,1-24,24H152a24.028,24.028,0,0,1-24-24H112a39.788,39.788,0,0,0,8.022,24H75.695A31.793,31.793,0,0,0,80,288V248H64v40a16,16,0,0,1-32,0V240a31.774,31.774,0,0,1,2.659-12.8L20,220.8A47.682,47.682,0,0,0,16,240V496H32V352h84l15.2,20.267a24.175,24.175,0,0,1,4.8,14.4v51.617L135.231,440H116.944L87.155,380.422l-14.31,7.156,32,64A8,8,0,0,0,112,456h56a16.019,16.019,0,0,1,16,16v8H92.707L54.993,412.115l-13.986,7.77,40,72A8,8,0,0,0,88,496H192a8,8,0,0,0,8-8V472A32.036,32.036,0,0,0,168,440ZM32,336V320h80v16Z"/><path d="M445.39,236.277A55.883,55.883,0,0,0,488,256a8,8,0,0,0,8-8V112a55.659,55.659,0,0,0-21.693-44.263L464.5,80.38A39.759,39.759,0,0,1,480,112V239.2A40.071,40.071,0,0,1,448,200V176a31.989,31.989,0,0,0,16-59.695V104a88.1,88.1,0,0,0-88-88H360a87.505,87.505,0,0,0-61.6,25.156l11.2,11.426A71.589,71.589,0,0,1,360,32h16a72.081,72.081,0,0,1,72,72v8h-6.067a86.015,86.015,0,0,1-39.792-44.188l-2.713-6.783a8,8,0,0,0-13.742-1.94L367.091,83A228.569,228.569,0,0,1,318.383,129.4a12.007,12.007,0,0,0-2.391,1.686A228.519,228.519,0,0,1,288,147.506V104a71.786,71.786,0,0,1,10.955-38.2L285.4,57.3A87.782,87.782,0,0,0,272,104v56a8,8,0,0,0,11.151,7.354c1.629-.7,3.238-1.438,4.849-2.171V216a79.831,79.831,0,0,0,28.028,60.744l-13.569,3.395-28.12,4.021A40.188,40.188,0,0,0,240,323.75V344h16V323.75A24.108,24.108,0,0,1,276.6,300l24.893-3.561L360,347.63v38.1l-85.728-25.4A7.975,7.975,0,0,0,272,360H208.983l-31.043-7.761A8,8,0,0,0,168,360v56a8,8,0,0,0,9.94,7.761L200,418.246V424a8,8,0,0,0,9.132,7.92l1.218-.174A83.29,83.29,0,0,0,232.6,471.4a85.272,85.272,0,0,0,7.4,6.553V488a8,8,0,0,0,8,8H456a40.045,40.045,0,0,0,40-40V323.75a40.187,40.187,0,0,0-34.337-39.589l-28.122-4.022-13.569-3.394A80.135,80.135,0,0,0,445.39,236.277ZM368,280a63.643,63.643,0,0,1-24.079-4.718c.048-.506.079-1.015.079-1.532V244.338a80.487,80.487,0,0,0,48,0V273.75c0,.517.031,1.026.079,1.532A63.643,63.643,0,0,1,368,280Zm40-42.715a79.92,79.92,0,0,0,24-21.17,63.9,63.9,0,0,1-24,49.792ZM448,160V128a16,16,0,0,1,0,32ZM316.884,149.64a11.976,11.976,0,0,0,18.636-12.971,244.338,244.338,0,0,0,44.2-43.85L389.9,79.731A101.971,101.971,0,0,0,432,124.793V168a64,64,0,1,1-128,0V157.212Q310.561,153.626,316.884,149.64ZM304,216.117a79.917,79.917,0,0,0,24,21.169v28.621A63.9,63.9,0,0,1,304,216.117Zm16.773,75.932,11.1-2.778a15.981,15.981,0,0,0,2.327-.783A79.317,79.317,0,0,0,360,295.6V326.37ZM184,405.754V370.246l16,4v27.508Zm42.266,23.718L240,427.51v28.308A67.149,67.149,0,0,1,226.266,429.472ZM304,478.923V448a8,8,0,0,0-1.877-5.148c-.4-.474-.772-.96-1.153-1.443L340.8,459.333A68.345,68.345,0,0,1,304,478.923Zm-27.108-48.349A72.934,72.934,0,0,0,288,450.825v29.048a67.407,67.407,0,0,1-32-10.181V425.225l6.834-.977ZM341.255,480a84,84,0,0,0,14.872-13.771L360,467.973V480ZM376,475.172,386.728,480H376ZM480,456a24.028,24.028,0,0,1-24,24H425.717l-158.434-71.3a7.977,7.977,0,0,0-4.415-.625L216,414.776V376h54.84L480,437.974Zm-17.006-56H480v21.286l-17.364-5.144A70.816,70.816,0,0,0,462.994,400ZM434.5,296.439,459.4,300A24.108,24.108,0,0,1,480,323.75V384H459.533a66.492,66.492,0,0,0-5.576-12.071l-13.773,8.142A50.851,50.851,0,0,1,445.8,393.9a53.665,53.665,0,0,1,1.248,17.623L376,390.472V347.63Zm-30.386-7.168,11.106,2.778L376,326.37V295.6a79.317,79.317,0,0,0,25.793-7.111A16.117,16.117,0,0,0,404.118,289.271Z"/><rect x="328" y="352" width="16" height="16"/></g></svg>
