<svg id="Capa_1" enable-background="new 0 0 512 512" height="512" viewBox="0 0 512 512" width="512" xmlns="http://www.w3.org/2000/svg"><path d="m31 497v-320c0-8.284 6.716-15 15-15h420c8.284 0 15 6.716 15 15v320z" fill="#e8f2f8"/><path d="m481 497v-320c0-8.284-6.716-15-15-15h-210v335z" fill="#d2e1e6"/><path d="m346 252h-180c-8.284 0-15-6.716-15-15s6.716-15 15-15h180c8.284 0 15 6.716 15 15s-6.716 15-15 15z" fill="#5a5a5a"/><path d="m346 222h-90v30h90c8.284 0 15-6.716 15-15s-6.716-15-15-15z" fill="#3c3c3c"/><path d="m291 497v-200c0-8.284 6.716-15 15-15h100c8.284 0 15 6.716 15 15v200z" fill="#f44650"/><path d="m201 412h-100c-8.284 0-15-6.716-15-15v-100c0-8.284 6.716-15 15-15h100c8.284 0 15 6.716 15 15v100c0 8.284-6.716 15-15 15z" fill="#fa7878"/><path d="m116 312h70v70h-70z" fill="#82e0ff"/><path d="m321 312h70v180h-70z" fill="#50ccf0"/><path d="m496 192h-480c-4.663 0-9.061-2.168-11.9-5.868-2.839-3.699-3.796-8.508-2.589-13.013l30-112c1.757-6.558 7.699-11.119 14.489-11.119h420c6.79 0 12.732 4.561 14.489 11.119l30 112c1.207 4.504.25 9.313-2.589 13.013s-7.237 5.868-11.9 5.868z" fill="#fa7878"/><path d="m480.489 61.119c-1.757-6.558-7.699-11.119-14.489-11.119h-210v142h240c4.663 0 9.061-2.168 11.9-5.868 2.839-3.699 3.796-8.508 2.589-13.013z" fill="#f44650"/><path d="m497 512h-482c-8.284 0-15-6.716-15-15s6.716-15 15-15h482c8.284 0 15 6.716 15 15s-6.716 15-15 15z" fill="#d2e1e6"/><path d="m497 482h-241v30h241c8.284 0 15-6.716 15-15s-6.716-15-15-15z" fill="#b9c8d2"/><path d="m366 130c-15.151 0-29.067-7.72-37.285-20h-145.43c-8.218 12.28-22.133 20-37.285 20-24.813 0-45-20.187-45-45 0-6.979 1.653-13.813 4.767-20-3.114-6.187-4.767-13.02-4.767-20 0-24.813 20.187-45 45-45 15.151 0 29.067 7.72 37.285 20h145.431c8.217-12.28 22.133-20 37.284-20 24.813 0 45 20.187 45 45 0 6.98-1.653 13.813-4.767 20 3.114 6.188 4.767 13.021 4.767 20 0 24.813-20.187 45-45 45z" fill="#e8f2f8"/><path d="m366 0c-15.151 0-29.067 7.72-37.285 20h-72.715v90h72.715c8.218 12.28 22.133 20 37.285 20 24.813 0 45-20.187 45-45 0-6.979-1.653-13.813-4.767-20 3.114-6.187 4.767-13.02 4.767-20 0-24.813-20.187-45-45-45z" fill="#d2e1e6"/></svg>