<svg id="Capa_1" enable-background="new 0 0 512 512" height="512" viewBox="0 0 512 512" width="512" xmlns="http://www.w3.org/2000/svg"><g><g><path d="m496.997 204.546-233.487-135.035c-4.646-2.687-10.373-2.687-15.019 0l-233.488 135.035c-3.333 1.928-7.503-.478-7.503-4.328v-48.448c0-1.785.952-3.435 2.497-4.328l238.493-137.931c4.646-2.687 10.373-2.687 15.019 0l238.494 137.931c1.545.894 2.497 2.543 2.497 4.328v48.448c0 3.851-4.17 6.256-7.503 4.328z" fill="#d78878"/><path d="m43 188.355 205.49-118.84c4.65-2.69 10.37-2.69 15.02 0l205.49 118.84v286.14c0 16.569-13.431 30-30 30h-366c-16.569 0-30-13.431-30-30z" fill="#fff5c6"/><path d="m248.49 69.515-205.49 118.84v29.999l205.49-118.843c4.646-2.687 10.373-2.687 15.019 0l205.491 118.843v-29.999l-205.49-118.84c-4.65-2.69-10.37-2.69-15.02 0z" fill="#fee97d"/><path d="m413.738 504.495h-315.476v-195.544c0-87.116 70.621-157.737 157.737-157.737 87.116 0 157.737 70.621 157.737 157.737v195.544z" fill="#9e9797"/><path d="m382.58 214.82c.758 6.272 1.158 12.655 1.158 19.131 0 107.996-87.548 195.544-195.544 195.544h-89.932v75h315.475v-195.544c.001-35.282-11.586-67.856-31.157-94.131z" fill="#766e6e"/><path d="m499.5 504.495h-487c-2.761 0-5-2.239-5-5v-31.171c0-2.761 2.239-5 5-5h487c2.761 0 5 2.239 5 5v31.171c0 2.762-2.239 5-5 5z" fill="#d78878"/><path d="m350.251 463.324h-191.751l60-52.908h71.751z" fill="#fed2a4"/><g><path d="m321.213 472.902c0 12.312 14.455 22.293 32.287 22.293s32.287-9.981 32.287-22.293c0-3.429-1.124-6.676-3.127-9.578h-58.32c-2.003 2.902-3.127 6.149-3.127 9.578z" fill="#c96e59"/><ellipse cx="353.5" cy="454.824" fill="#fed2a4" rx="32.287" ry="22.293"/><path d="m126.213 472.902c0 12.312 14.455 22.293 32.287 22.293s32.287-9.981 32.287-22.293c0-3.429-1.124-6.676-3.127-9.578h-58.32c-2.003 2.902-3.127 6.149-3.127 9.578z" fill="#c96e59"/><ellipse cx="158.5" cy="454.824" fill="#fed2a4" rx="32.287" ry="22.293"/></g><g><g><path d="m269.933 282.302c3.92-7.602 19.541-35.67 52.758-46.83 12.904-4.336 24.622-4.829 33.158-4.324 1.419.084 2.576 1.156 2.775 2.564 1.591 11.248 3.263 35.888-9.257 62.817-12.553 27-32.439 41.389-40.903 46.83-12.844-20.352-25.687-40.705-38.531-61.057z" fill="#ffbd86"/><path d="m293.426 282.055c6.688-9.536 18.17-21.758 35.634-27.625 3.442-1.156 6.984-2.024 10.601-2.599-.277 10.207-2.262 22.999-8.43 36.266-4.976 10.703-11.371 19.123-17.811 25.642z" fill="#fdf6ec"/><path d="m242.067 282.302c-3.92-7.602-19.541-35.67-52.758-46.83-12.904-4.336-24.622-4.829-33.158-4.324-1.419.084-2.576 1.156-2.775 2.564-1.591 11.248-3.263 35.888 9.257 62.817 12.553 27 32.439 41.389 40.903 46.83 12.844-20.352 25.687-40.705 38.531-61.057z" fill="#ffbd86"/><path d="m198.58 313.738c-6.44-6.519-12.834-14.938-17.811-25.641-6.168-13.268-8.153-26.059-8.43-36.267 3.617.575 7.159 1.443 10.601 2.599 17.464 5.868 28.946 18.09 35.634 27.625z" fill="#fdf6ec"/></g><path d="m290.251 410.416h-71.751l-20.486 18.064c7.136 4.801 14.756 9.265 23.203 12.62 32.879 13.056 69.924 12.691 102.471-1.199z" fill="#ffbd86"/><path d="m349.196 357.68c-10.254-9.415-4.524-23.997-7.771-44.508-5.341-33.735-34.123-53.815-36.03-55.105-17.8-12.039-36.99-13.811-49.395-13.433-12.404-.378-31.594 1.394-49.394 13.433-1.908 1.29-30.689 21.37-36.03 55.105-3.247 20.511 2.482 35.093-7.771 44.508-4.365 4.008-10.013 5.511-15.263 5.919-2.401.187-3.667 2.938-2.179 4.832 9.397 11.964 25.678 29.273 50.647 42.941 3.029 1.658 6.499 3.229 10.209 4.703 31.93 12.679 67.635 12.679 99.565 0 3.71-1.473 7.18-3.045 10.209-4.703 24.969-13.668 41.25-30.977 50.647-42.941 1.488-1.894.222-4.645-2.179-4.832-5.252-.408-10.9-1.911-15.265-5.919z" fill="#fed2a4"/><g><path d="m280.767 371.773c-4.142 0-7.5 3.358-7.5 7.5 0 2.693-2.19 4.883-4.883 4.883s-4.884-2.19-4.884-4.883v-25.098c0-4.142-3.358-7.5-7.5-7.5s-7.5 3.358-7.5 7.5v25.098c0 2.693-2.191 4.883-4.884 4.883s-4.883-2.19-4.883-4.883c0-4.142-3.358-7.5-7.5-7.5s-7.5 3.358-7.5 7.5c0 10.964 8.919 19.883 19.883 19.883 4.682 0 8.983-1.636 12.384-4.354 3.401 2.717 7.702 4.354 12.384 4.354 10.964 0 19.883-8.919 19.883-19.883 0-4.142-3.358-7.5-7.5-7.5z" fill="#ffbd86"/><path d="m244.62 338.008h22.76c4.651 0 7.534 5.064 5.159 9.063l-11.38 19.168c-2.325 3.916-7.993 3.916-10.318 0l-11.38-19.168c-2.375-4 .507-9.063 5.159-9.063z" fill="#7a6d79"/></g></g></g><path d="m218.513 300.912c1.391-.868 3.657-1.941 6.557-2.128 3.89-.247 6.938 1.235 8.405 2.143 1.229.761 2.593 1.124 3.94 1.124 2.512 0 4.965-1.261 6.384-3.554 2.18-3.522 1.092-8.145-2.43-10.324-5.161-3.195-11.293-4.745-17.263-4.357-4.763.307-9.443 1.818-13.535 4.372-3.514 2.193-4.585 6.819-2.392 10.333 2.193 3.512 6.819 4.585 10.334 2.391zm33.732-224.909c2.316-1.339 5.193-1.339 7.51 0l233.487 135.035c3.914 2.263 8.588 2.265 12.504.006s6.254-6.307 6.254-10.827v-48.447c0-4.448-2.392-8.594-6.242-10.82l-238.493-137.932c-6.949-4.018-15.581-4.018-22.53 0l-238.493 137.932c-3.85 2.226-6.242 6.372-6.242 10.82v48.448c0 4.521 2.338 8.568 6.254 10.827s8.59 2.257 12.504-.007l16.742-9.682v254.47h-23c-6.893 0-12.5 5.607-12.5 12.5v31.17c0 6.893 5.607 12.5 12.5 12.5h487c6.893 0 12.5-5.607 12.5-12.5v-31.17c0-6.893-5.607-12.5-12.5-12.5h-23v-235.575c0-4.142-3.358-7.5-7.5-7.5s-7.5 3.358-7.5 7.5v235.575h-40.26v-146.87c0-44.138-17.188-85.634-48.397-116.843s-72.705-48.396-116.843-48.396c-91.114 0-165.24 74.126-165.24 165.24v124.37c0 4.142 3.358 7.5 7.5 7.5s7.5-3.358 7.5-7.5v-124.37c0-82.842 67.397-150.24 150.24-150.24 40.132 0 77.861 15.627 106.237 44.003s44.003 66.105 44.003 106.237v146.87h-12.986c.014-.333.033-.665.033-1.001 0-16.707-17.477-29.793-39.787-29.793-10.396 0-19.741 2.844-26.759 7.569l-13.22-11.663c2.201-.99 4.246-1.987 6.071-2.986 20.589-11.27 38.402-26.373 52.943-44.887 2.389-3.042 2.908-7.129 1.354-10.668-1.566-3.567-4.957-5.971-8.849-6.273-4.678-.364-8.302-1.698-10.772-3.966-3.969-3.644-4.151-8.784-4.163-19.14-.007-5.897-.026-12.561-1.15-20.144 2.669-4.23 5.1-8.644 7.215-13.185 12.934-27.819 11.738-53.936 9.875-67.025-.696-4.901-4.784-8.687-9.757-9.003-12.432-.728-24.539.857-35.989 4.708-9.866 3.317-19.093 8.277-27.489 14.767-13.647-5.226-26.885-6.282-36.811-6.003-9.924-.281-23.164.776-36.812 6.003-8.396-6.49-17.622-11.45-27.487-14.766-11.451-3.852-23.56-5.435-36.028-4.707-4.936.314-9.023 4.1-9.719 8.998-1.864 13.092-3.059 39.209 9.876 67.034 2.113 4.537 4.544 8.95 7.213 13.18-1.124 7.583-1.143 14.247-1.15 20.144-.012 10.356-.194 15.496-4.163 19.14-2.47 2.268-6.094 3.603-10.771 3.966-3.893.303-7.284 2.706-8.85 6.273-1.554 3.539-1.035 7.627 1.354 10.668 14.542 18.515 32.355 33.618 52.944 44.887 1.22.668 2.553 1.335 3.944 2l-12.995 11.456c-6.766-4.004-15.371-6.375-24.856-6.375-22.311 0-39.787 13.087-39.787 29.793 0 .336.019.668.033 1.001h-68.245v-263.148zm80.127 371.271c4.706-4.476 13.219-7.244 21.128-7.244 11.724 0 24.787 6.076 24.787 14.793 0 1.907-.638 3.678-1.682 5.237-3.894 5.818-13.91 9.556-23.106 9.556s-19.211-3.738-23.106-9.556c-1.106-1.652-1.682-3.181-1.682-5.237.002-2.862 1.501-5.495 3.661-7.549zm-7.29-204.69c8.477-2.852 17.413-4.218 26.568-4.09 1.242 12.067 1.101 32.324-8.619 53.847-10.722-24.504-30.694-38.634-33.434-40.487-.539-.364-1.079-.718-1.62-1.065 5.387-3.439 11.108-6.189 17.105-8.205zm-164.732-4.089c9.168-.119 18.1 1.24 26.57 4.089 5.996 2.016 11.716 4.765 17.104 8.205-4.254 3.121-23.807 15.771-35.055 41.553-9.718-21.524-9.86-41.778-8.619-53.847zm-4.247 131.178c4.584-1.323 8.526-3.485 11.774-6.468 8.992-8.257 9.004-18.902 9.017-30.172.007-5.848.014-11.895 1.089-18.688 4.885-30.855 31.686-49.295 32.824-50.065 15.809-10.692 33.169-12.512 44.964-12.148.152.005.305.005.457 0 11.784-.362 29.154 1.457 44.965 12.149 1.138.77 27.939 19.209 32.824 50.065 1.075 6.793 1.082 12.84 1.089 18.688.013 11.27.025 21.915 9.017 30.172 3.249 2.983 7.19 5.146 11.774 6.468-12.327 14.253-26.934 26.048-43.507 35.121-2.594 1.419-5.749 2.87-9.376 4.311-2.028.805-4.07 1.552-6.123 2.249-.048.017-.098.03-.146.048-28.608 9.679-59.518 8.916-87.759-2.297-3.628-1.441-6.783-2.892-9.376-4.312-16.574-9.073-31.18-20.868-43.507-35.121zm55.92 56.458c14.329 4.665 29.152 7.006 43.977 7.006 14.003 0 28.004-2.091 41.59-6.253l18.952 16.721c-1.822 3.449-2.829 7.229-2.829 11.219 0 .336.019.668.033 1.001h-115.492c.014-.333.033-.665.033-1.001 0-4.737-1.408-9.181-3.929-13.12zm-53.523 13.9c12.678 0 31.407 7.629 23.106 20.031-3.894 5.818-13.91 9.556-23.106 9.556s-19.211-3.738-23.106-9.556c-7.564-11.301 10.167-20.031 23.106-20.031zm-33.732 30.795c6.977 8.345 19.345 13.792 33.732 13.792s26.755-5.447 33.732-13.792h127.537c6.977 8.345 19.345 13.792 33.732 13.792s26.755-5.447 33.732-13.792h109.767v26.17h-482v-26.17zm-109.768-274.942v-42.672l237.245-137.209c2.316-1.339 5.193-1.339 7.51 0l237.245 137.209v42.672l-229.735-132.866c-6.949-4.019-15.581-4.019-22.529 0zm263.549 105.028c1.391-.868 3.657-1.941 6.557-2.128 3.894-.247 6.938 1.235 8.405 2.143 1.229.761 2.593 1.124 3.94 1.124 2.512 0 4.965-1.261 6.384-3.554 2.18-3.522 1.092-8.145-2.43-10.324-5.161-3.195-11.29-4.745-17.263-4.357-4.763.307-9.443 1.818-13.535 4.372-3.514 2.193-4.585 6.819-2.392 10.333 2.194 3.512 6.819 4.585 10.334 2.391zm-45.661 36.417c-2.396 4.208-2.348 9.407.124 13.571l11.38 19.167c1.057 1.781 2.465 3.251 4.108 4.35v4.856c0 2.693-2.191 4.883-4.884 4.883s-4.883-2.19-4.883-4.883c0-4.142-3.358-7.5-7.5-7.5s-7.5 3.358-7.5 7.5c0 10.964 8.919 19.883 19.883 19.883 4.682 0 8.983-1.636 12.384-4.354 3.401 2.717 7.702 4.354 12.384 4.354 10.964 0 19.883-8.919 19.883-19.883 0-4.142-3.358-7.5-7.5-7.5s-7.5 3.358-7.5 7.5c0 2.693-2.19 4.883-4.883 4.883s-4.884-2.19-4.884-4.883v-4.856c1.643-1.099 3.051-2.569 4.108-4.35l11.381-19.168c2.472-4.163 2.519-9.363.124-13.57-2.395-4.208-6.891-6.821-11.732-6.821h-22.761c-4.842 0-9.337 2.613-11.732 6.821zm31.857 8.179-8.745 14.729-8.745-14.729z"/></g></svg>