<?xml version="1.0"?>
<svg xmlns="http://www.w3.org/2000/svg" id="Layer_2" data-name="Layer 2" viewBox="0 0 128 128" width="512" height="512"><title>RECOMMENDED</title><path d="M84.417,53.674H73.8V47.362a8.454,8.454,0,0,0-8.445-8.445,1.749,1.749,0,0,0-1.694,1.31L60.165,53.674H55.3v-3.9a1.749,1.749,0,0,0-1.75-1.75H38.981a1.75,1.75,0,0,0-1.75,1.75V87.333a1.75,1.75,0,0,0,1.75,1.75H53.546a1.749,1.749,0,0,0,1.75-1.75v-3.9H79.433a6.382,6.382,0,0,0,6.094-4.569l4.984-17.056a6.35,6.35,0,0,0-6.094-8.131ZM51.8,85.583H40.731V51.521H51.8V85.583ZM87.152,60.822,82.167,77.88a2.863,2.863,0,0,1-2.734,2.05H55.3V57.174h6.222a1.749,1.749,0,0,0,1.693-1.31l3.45-13.271A4.952,4.952,0,0,1,70.3,47.362v8.062a1.75,1.75,0,0,0,1.75,1.75H84.417a2.849,2.849,0,0,1,2.735,3.648Z"/><path d="M127.71,63.035,118.664,49.35l1-16.375A1.748,1.748,0,0,0,118.7,31.3l-14.69-7.31L96.7,9.3a1.767,1.767,0,0,0-1.674-.968l-16.375,1L64.965.29a1.749,1.749,0,0,0-1.93,0L49.351,9.337l-16.376-1A1.735,1.735,0,0,0,31.3,9.3L23.993,23.992,9.3,31.3a1.748,1.748,0,0,0-.967,1.673l1,16.375L.29,63.035a1.749,1.749,0,0,0,0,1.93L9.336,78.65l-1,16.375A1.748,1.748,0,0,0,9.3,96.7l14.69,7.31L31.3,118.7a1.757,1.757,0,0,0,1.674.968l16.375-1,13.685,9.047a1.751,1.751,0,0,0,1.93,0l13.684-9.047,16.376,1A1.778,1.778,0,0,0,96.7,118.7l7.308-14.689L118.7,96.7a1.748,1.748,0,0,0,.967-1.673l-1-16.375,9.046-13.685A1.749,1.749,0,0,0,127.71,63.035ZM115.421,77.208a1.742,1.742,0,0,0-.286,1.071l.965,15.8-14.178,7.055a1.743,1.743,0,0,0-.787.787L94.082,116.1l-15.8-.967a1.74,1.74,0,0,0-1.071.287L64,124.152l-13.208-8.731a1.748,1.748,0,0,0-.965-.29l-.107,0-15.8.966-7.053-14.177a1.748,1.748,0,0,0-.787-.787L11.9,94.081l.965-15.8a1.742,1.742,0,0,0-.286-1.071L3.848,64l8.731-13.208a1.742,1.742,0,0,0,.286-1.071l-.965-15.8,14.178-7.055a1.743,1.743,0,0,0,.787-.787L33.918,11.9l15.8.967a1.764,1.764,0,0,0,1.071-.287L64,3.848l13.208,8.731a1.761,1.761,0,0,0,1.072.287l15.8-.966,7.053,14.177a1.748,1.748,0,0,0,.787.787L116.1,33.919l-.965,15.8a1.742,1.742,0,0,0,.286,1.071L124.152,64Z"/><path d="M64,20.25A43.75,43.75,0,1,0,107.75,64,43.8,43.8,0,0,0,64,20.25Zm0,84A40.25,40.25,0,1,1,104.25,64,40.3,40.3,0,0,1,64,104.25Z"/></svg>
