<svg id="Layer_1" height="512" viewBox="0 0 128 128" width="512" xmlns="http://www.w3.org/2000/svg" data-name="Layer 1"><path d="m43.667 26h-8.917v17.452l8.917-3.621z" fill="#cb6f2c"/><path d="m43.667 39.831v-13.831h-4.459v15.642z" fill="#af5819"/><path d="m93.25 112.5h-58.5v-68l29.25-15.696 29.25 15.696z" fill="#ffd89e"/><path d="m83.625 41.375h9.554v38.235h-9.554z" fill="#ffc65c"/><path d="m27.625 74.25h72.75v38.25h-72.75z" fill="#ffd89e"/><path d="m27.625 112.5h-12.125v-25l12.125-8.25z" fill="#fcca03"/><path d="m100.375 112.5h12.125v-25l-12.125-8.25z" fill="#fcad02"/><path d="m54 87.167h20v25.333h-20z" fill="#cb6f2c"/><path d="m36.61 87.167h8.405v14.603h-8.405z" fill="#36cef4"/><path d="m45.015 103.52h-8.4a1.75 1.75 0 0 1 -1.75-1.75v-14.6a1.75 1.75 0 0 1 1.75-1.75h8.4a1.75 1.75 0 0 1 1.75 1.75v14.6a1.75 1.75 0 0 1 -1.75 1.75zm-6.654-3.5h4.9v-11.1h-4.9z" fill="#fff"/><circle cx="64" cy="48.813" fill="#ef3f00" r="5.812"/><path d="m36.458 15.5a7.2 7.2 0 0 0 -5.973 3.172 6.517 6.517 0 0 0 -6.043.756 4.5 4.5 0 1 0 -2.785 4.748c-.02.21-.032.422-.032.637a6.557 6.557 0 0 0 11.519 4.293 7.207 7.207 0 1 0 3.314-13.606z" fill="#c2dbe5"/><path d="m101.387 53.267-37.615-19.93-37.121 19.919-3.783-7.048 40.879-21.937 41.385 21.926z" fill="#ff6100"/><path d="m91.5 74.25h8.875v38.25h-8.875z" fill="#ffc65c"/><path d="m82.985 87.167h8.405v14.603h-8.405z" fill="#36cef4"/><path d="m91.39 103.52h-8.4a1.75 1.75 0 0 1 -1.75-1.75v-14.6a1.75 1.75 0 0 1 1.75-1.75h8.4a1.75 1.75 0 0 1 1.75 1.75v14.6a1.75 1.75 0 0 1 -1.75 1.75zm-6.654-3.5h4.9v-11.1h-4.9z" fill="#fff"/><path d="m93.25 60.583h-9.625v15.417h9.625a1.75 1.75 0 0 0 1.75-1.75v-11.917a1.75 1.75 0 0 0 -1.75-1.75zm-1.75 11.917h-4.375v-8.417h4.375z" fill="#ef3f00"/><path d="m63.747 24.271 19.878 19.585 17.762 9.411 3.745-7.07z" fill="#ef3f00"/><path d="m65.75 87.167h8.25v25.333h-8.25z" fill="#af5819"/><path d="m61.75 43.452a5.814 5.814 0 0 0 0 10.721 5.814 5.814 0 0 0 0-10.721z" fill="#ff6100"/><path d="m36.458 15.5a7.2 7.2 0 0 0 -5.973 3.172 6.517 6.517 0 0 0 -6.043.756 4.473 4.473 0 0 0 -7.019-3.109 4.477 4.477 0 0 0 6.15 4.107c-.02.21-.032.422-.032.637a6.557 6.557 0 0 0 11.519 4.293 7.187 7.187 0 0 0 8.489-1.385 7.178 7.178 0 0 0 -7.091-8.47z" fill="#e0eff4"/><g fill="#5d0000"><path d="m40.813 110.75h-.813a1.75 1.75 0 0 0 0 3.5h.813a1.75 1.75 0 1 0 0-3.5z"/><path d="m113.484 86.053-11.359-7.729v-4.074a1.75 1.75 0 0 0 -1.75-1.75h-5.375v-20.637l5.567 2.95a1.75 1.75 0 0 0 2.366-.727l3.745-7.069a1.75 1.75 0 0 0 -.727-2.366l-24.242-12.844a1.75 1.75 0 1 0 -1.638 3.093l22.7 12.025-2.111 3.975-36.069-19.109a1.753 1.753 0 0 0 -1.647 0l-35.578 19.096-2.128-3.965 38.514-20.668 5.506 2.917a1.75 1.75 0 1 0 1.642-3.093l-6.331-3.354a1.753 1.753 0 0 0 -1.647 0l-17.5 9.393v-6.117a1.739 1.739 0 0 0 -.31-.992 8.953 8.953 0 0 0 -16.07-7.318 1.75 1.75 0 0 0 2.9 1.963 5.458 5.458 0 1 1 4.523 8.513 5.385 5.385 0 0 1 -2.508-.615 1.75 1.75 0 0 0 -2.129.407 4.807 4.807 0 0 1 -8.447-3.146c0-.157.009-.313.024-.466a1.75 1.75 0 0 0 -2.388-1.8 2.75 2.75 0 1 1 1.7-2.9 1.75 1.75 0 0 0 3.472-.446 6.24 6.24 0 1 0 -6.189 7.05 8.3 8.3 0 0 0 13 5.332v7.2l-10.959 5.884a1.751 1.751 0 0 0 -.714 2.37l3.783 7.049a1.75 1.75 0 0 0 2.37.714l36.3-19.478 27.72 14.688v10.574h-55v-4.583a1.75 1.75 0 0 0 -3.5 0v16.5h-5.375a1.75 1.75 0 0 0 -1.75 1.75v4.074l-11.359 7.729a1.75 1.75 0 0 0 -.766 1.447v25a1.75 1.75 0 0 0 1.75 1.75h18.333a1.75 1.75 0 1 0 0-3.5h-16.583v-22.324l8.625-5.868v22.942a1.75 1.75 0 0 0 3.5 0v-29.5h69.25v34.75h-42.875v-21.833h16.5v16.416a1.75 1.75 0 0 0 3.5 0v-18.166a1.75 1.75 0 0 0 -1.75-1.75h-20a1.75 1.75 0 0 0 -1.75 1.75v23.583h-4.833a1.75 1.75 0 0 0 0 3.5h65.083a1.75 1.75 0 0 0 1.75-1.75v-25a1.75 1.75 0 0 0 -.766-1.447zm-76.984-54.389a8.9 8.9 0 0 0 5.417-1.864v4.2l-5.417 2.906zm55 40.836h-4.375v-8.417h4.375zm-41.75-2.458a1.75 1.75 0 0 0 1.75-1.75v-4.209h3.625v8.417h-10.75v-8.417h3.625v4.208a1.75 1.75 0 0 0 1.75 1.751zm8.875-5.958h3.625v8.416h-3.625zm7.125 0h3.625v4.208a1.75 1.75 0 1 0 3.5 0v-4.209h3.625v8.417h-10.75zm14.25 0h3.625v8.416h-3.625zm-39.125 0v8.416h-4.375v-8.417zm69.875 46.666h-8.625v-28.192l8.625 5.868z"/><path d="m46.765 101.77v-14.6a1.75 1.75 0 0 0 -1.75-1.75h-8.4a1.75 1.75 0 0 0 -1.75 1.75v14.6a1.75 1.75 0 0 0 1.75 1.75h8.4a1.75 1.75 0 0 0 1.75-1.75zm-3.5-1.75h-4.9v-11.1h4.9z"/><path d="m91.39 103.52a1.75 1.75 0 0 0 1.75-1.75v-14.6a1.75 1.75 0 0 0 -1.75-1.75h-8.4a1.75 1.75 0 0 0 -1.75 1.75v14.6a1.75 1.75 0 0 0 1.75 1.75zm-6.654-14.6h4.9v11.1h-4.9z"/><path d="m64 56.375a7.563 7.563 0 1 0 -7.563-7.562 7.571 7.571 0 0 0 7.563 7.562zm0-11.625a4.063 4.063 0 1 1 -4.063 4.063 4.067 4.067 0 0 1 4.063-4.063z"/><path d="m74.73 32.07.545.289a1.75 1.75 0 1 0 1.641-3.092l-.545-.289a1.75 1.75 0 1 0 -1.641 3.092z"/></g></svg>