<?xml version="1.0"?>
<svg xmlns="http://www.w3.org/2000/svg" id="Capa_1" enable-background="new 0 0 512.347 512.347" height="512px" viewBox="0 0 512.347 512.347" width="512px"><g><g><path d="m297.745 323.29c1.732-3.763.085-8.217-3.677-9.949-11.652-5.363-24.065-8.082-36.895-8.082-48.823 0-88.543 39.72-88.543 88.543s39.72 88.543 88.543 88.543 88.543-39.72 88.543-88.543c0-22.163-8.265-43.388-23.273-59.765-2.798-3.054-7.543-3.262-10.596-.462-3.054 2.798-3.261 7.542-.462 10.596 12.466 13.604 19.332 31.23 19.332 49.631 0 40.552-32.992 73.543-73.543 73.543s-73.543-32.991-73.543-73.543 32.992-73.543 73.543-73.543c10.649 0 20.952 2.257 30.623 6.708 3.764 1.735 8.217.086 9.948-3.677z" data-original="#000000" class="active-path" data-old_color="#000000" fill="#FFFFFF"/><path d="m282.521 374.961c4.142 0 7.5-3.358 7.5-7.5s-3.358-7.5-7.5-7.5h-17.848v-10.02c0-4.142-3.358-7.5-7.5-7.5s-7.5 3.358-7.5 7.5v10.02h-14.004c-6.638 0-12.039 5.4-12.039 12.038v19.539c0 6.638 5.4 12.039 12.039 12.039h39.352v13.615h-43.891c-4.142 0-7.5 3.358-7.5 7.5s3.358 7.5 7.5 7.5h18.542v10.019c0 4.142 3.358 7.5 7.5 7.5s7.5-3.358 7.5-7.5v-10.019h13.31c6.638 0 12.039-5.4 12.039-12.039v-19.539c0-6.638-5.4-12.038-12.039-12.038h-39.352v-13.615z" data-original="#000000" class="active-path" data-old_color="#000000" fill="#FFFFFF"/><path d="m281.15 0h-49.954c-115.476 0-209.424 93.947-209.424 209.424 0 4.626 2.257 8.98 6.038 11.646s8.639 3.331 12.997 1.778l8.331-2.969 97.475 131.166c-5.15 13.271-7.982 27.689-7.982 42.757 0 26.852 9.235 53.162 26.005 74.083 2.59 3.232 7.312 3.752 10.543 1.161 3.232-2.591 3.752-7.311 1.161-10.543-14.856-18.534-22.709-40.908-22.709-64.701 0-57.094 46.449-103.543 103.543-103.543s103.543 46.449 103.543 103.543-46.449 103.543-103.543 103.543c-21.245 0-41.664-6.392-59.048-18.485-3.4-2.366-8.075-1.526-10.439 1.874-2.366 3.4-1.526 8.074 1.874 10.439 19.911 13.851 43.292 21.171 67.614 21.171 65.365 0 118.543-53.178 118.543-118.543 0-15.563-3.02-30.431-8.496-44.059l96.571-129.656 7.748 2.761c1.553.553 3.169.825 4.778.825 2.906 0 5.786-.887 8.219-2.604 3.781-2.666 6.038-7.02 6.038-11.646-.002-115.475-93.949-209.422-209.426-209.422zm-244.375 208.361c.573-106.72 87.569-193.361 194.421-193.361h2.063l-7.489 9.304c-10.566 13.128-19.857 27.422-27.614 42.484-1.896 3.683-.448 8.205 3.234 10.102 1.099.565 2.271.833 3.427.833 2.719 0 5.344-1.484 6.674-4.068 7.294-14.165 16.03-27.605 25.963-39.946l15.061-18.709h8.317l15.059 18.71c19.281 23.955 33.517 51.041 42.313 80.507 7.919 26.53 11.075 53.865 9.442 81.387l-46.377-15.716c-16.182-5.484-34.006-5.485-50.189 0l-45.333 15.362c-1.94-31.569 2.536-62.851 13.374-93.111 1.396-3.899-.633-8.193-4.532-9.589-3.899-1.397-8.193.632-9.59 4.532-11.681 32.616-16.424 66.359-14.148 100.415l-40.268-9.384c-14.629-3.409-29.842-2.546-43.991 2.497l-37.195 13.255c-.022.008-.044.016-.065.023zm117.112 127.326-89.974-121.072 27.713-9.876c11.435-4.076 23.728-4.773 35.552-2.018l44.362 10.337c3.078.719 6.277.597 9.292-.325l23.417 75.019c-21.174 10.61-38.747 27.374-50.362 47.935zm64.241-53.812-23.081-73.94 40.846-13.842c13.078-4.432 27.482-4.432 40.561 0l41.786 14.161-22.352 73.504c-12.139-4.206-25.163-6.498-38.715-6.498-13.674 0-26.812 2.335-39.045 6.615zm141.695 52.69c-11.673-20.149-29.108-36.557-50.032-46.966l22.684-74.598c2.729.671 5.58.699 8.333.057l44.361-10.337c11.822-2.755 24.117-2.057 35.552 2.018l28.291 10.082zm65.933-143.956c-14.15-5.042-29.362-5.907-43.991-2.497l-39.193 9.133c1.841-29.527-1.5-58.859-9.995-87.319-9.354-31.337-24.494-60.145-45-85.622l-7.49-9.304h1.063c106.853 0 193.849 86.641 194.421 193.361z" data-original="#000000" class="active-path" data-old_color="#000000" fill="#FFFFFF"/></g></g> </svg>
